<svg width="360" height="280" viewBox="0 0 360 280" fill="none" xmlns="http://www.w3.org/2000/svg">
  <rect width="360" height="280" rx="34" fill="#0B1813"/>
  <circle cx="179" cy="140" r="88" fill="#142E24"/>
  <circle cx="179" cy="140" r="64" fill="#10251D"/>
  <path d="M179 52C227.601 52 267 91.3989 267 140C267 188.601 227.601 228 179 228C130.399 228 91 188.601 91 140" stroke="#8FD39F" stroke-width="14" stroke-linecap="round"/>
  <path d="M179 76C214.346 76 243 104.654 243 140" stroke="#F1B66D" stroke-width="14" stroke-linecap="round"/>
  <circle cx="179" cy="140" r="18" fill="#234636"/>
  <circle cx="106" cy="88" r="10" fill="#F1B66D"/>
  <circle cx="258" cy="84" r="8" fill="#79B98A"/>
  <circle cx="282" cy="156" r="7" fill="#F1B66D"/>
  <circle cx="235" cy="216" r="10" fill="#79B98A"/>
  <circle cx="122" cy="214" r="8" fill="#F1B66D"/>
  <path d="M145 140L169 164L214 116" stroke="#BDECC8" stroke-width="12" stroke-linecap="round" stroke-linejoin="round"/>
</svg>
